<svg xmlns="http://www.w3.org/2000/svg" viewBox="0 0 2572.63 2572.63">
  <defs>
    <style>
      .cls-1 {
        fill: #01102f;
      }

      .cls-2 {
        fill: #1d1d1b;
        stroke-width: 5px;
      }

      .cls-2, .cls-3 {
        stroke: #000;
        stroke-miterlimit: 10;
      }

      .cls-3 {
        fill: none;
        stroke-width: 4px;
      }

      .cls-4 {
        fill: #191919;
      }

      .cls-5 {
        fill: #efb8a0;
      }

      .cls-6 {
        fill: #d19ef2;
      }
    </style>
  </defs>
  <g id="Слой_2" data-name="Слой 2">
    <path class="cls-1" d="M1723.4,1485.86s25.23,57.58,20.29,94.87,9.88,32.91-27.42,155.2c.55,60.87,3.29,89.39-7.67,121.2-15.91,57-32.91,96.52-32.91,96.52s-14.26,42.22-28,81.16-25.77,92.68-31.26,121.2,1.1,24.68-12.06,54.84c-3.84,14.8-1.1,18.1-8.77,24.13s-11.52,11.51-28,3.84c-15.91-15.91-38.94-19.2-50.46-19.2s-21.93-4.38-21.93-18.1.55-42.77,3.84-53.74,24.13-75.13,27.42-98.16,6.58-104.2,20.29-142,20.84-63.62,23.58-71.29c-4.94-8.78.31-22,4.82-26.9-3.65-8.15-3.65-22.32,1.28-25.75-1.28-11-6.7-89.13-29.1-139.72-22.77,49.84-25.76,65.14-38.45,101s-10.45,57.86-40.69,93.7-48.53,63.08-91.08,97.05c-31.73,46.29-36.21,49.65-41.81,60.1s-36.65,58.24-48.56,73.54-21.25,23.52-26.85,35.84c1.5,13.06.38,32.1-5.22,40.32S1251.38,2163,1226,2163s-39.94-15.31-47.78-22.77-21.65-16.8-19.41-29.49,5.23-34,12.69-37.7c5.23-12.32,9.34-34,16.8-42.19s16-16.42,18.67-22.77,7.09-42.55,17.17-54.87,81-99.67,87-112,42.56-47.41,45.17-55.62-6-11.95,8.59-23.15c1.87-21.65,8.59-47.4,9-69.8s-3-199,9-260.56S1723.4,1485.86,1723.4,1485.86Z"/>
  </g>
  <g id="Слой_10" data-name="Слой 10">
    <path class="cls-2" d="M1924,822.78l-9.28-19.95Z"/>
    <path class="cls-2" d="M1952.71,807.45l-9.28-19.94Z"/>
    <path class="cls-2" d="M1979.93,792l-9.28-19.94Z"/>
    <path class="cls-2" d="M1951,903.11l-9.28-20Z"/>
    <path class="cls-2" d="M1984.74,890.63l-9.28-19.94Z"/>
    <path class="cls-2" d="M2011.6,872.6l-9.27-20Z"/>
    <path class="cls-3" d="M1918.29,804.18c-6.6,6.65-8.25,6.16-8.69,5.87-1.69-1.11-.59-9.08,4.34-10.91,3-1.13,6.08.61,6.72,1"/>
    <path class="cls-3" d="M1942.05,792.4c-6.11,2.06-12.7-5.49,3.64-4.86s-1,2.73-1,2.73"/>
    <path class="cls-3" d="M1967.52,776.79c5-7.22,9.61-6.39,8.86-3.65s-9.46,6.55-14.93,5.55"/>
    <path class="cls-3" d="M1947.63,896.51c10.83.57,20.55-1.86,2.82,6.15s-6.63-2.43-6.63-2.43"/>
    <path class="cls-3" d="M1976.87,890.85c5.81-2.48,5.36-14.18,9.34-8.78s-3.87,10.4-3.87,10.4"/>
    <path class="cls-3" d="M2004.88,870.12c11-6,17.91.25,10.11,1.71s-7.69,5.78-7.69,5.78"/>
    <path class="cls-4" d="M1440.53,906.22s-28.38,68.69-110.52,83.63c-37.48,6.81-53.82-6.52-104.61,4.28-20.72,4.41-59,13-92.34,43.47-36.5,33.33-47.23,74.77-51.61,92.63-27,110,39.55,238.17,121.74,271.93,31.31,12.86,64.18,13.9,64.18,13.9,4.94.19,33.61,1.08,61.78-7.93,63.11-20.19,117.18-88,168.63-152.53,4.45-5.58,15.71-19.9,33.59-22.82,15.14-2.47,28.68,4.26,36.85,9.46Z"/>
    <path class="cls-4" d="M1794.79,893.88l103.06-50.67s-10.37-16.12,13.81-27.63,73.69-31.66,73.69-31.66,11.08-4.7,20.16.76a20.68,20.68,0,0,1,7.48,8.45c7.54,13.87,13.7,29.55,17,38.54.75,3.41,1.51,9.33-1.28,15-3,6.09-8.53,9-11.38,10.38l-77.5,36.79s-15,8.06-20.72-4.61c-14.4,5.18-93.84,46.63-93.84,46.63Z"/>
  </g>
  <g id="Слой_6" data-name="Слой 6">
    <path class="cls-5" d="M1869.72,1440.57s-1.49,19,12.22,46.13,14,26.68,15,47.37-3.54,25.19-13.61,37.16a73.59,73.59,0,0,1-8.5,8.59,84.49,84.49,0,0,1-25,14.85c-5.11,1.92-8,2.42-10.51,1.09a9,9,0,0,1-4.49-7.33c-.15-4.22,3.3-6.61,15.74-18,7.75-7.06,10.16-9.75,12-14.08,1.13-2.67,1.48-5.76,1.48-10.61a28,28,0,0,0-2.53-8.36,28.74,28.74,0,0,0-10.13-11.43c.22,5.37.32,18.75-5,28.27a12,12,0,0,1-5.14,5.31c-3.86,1.87-9.3,1.32-12.29-1.42-4-3.69-2.12-10-1.52-21.73a160.39,160.39,0,0,0-1.08-24.86c-2.72-21.86-14.06-27-13.3-37.1C1813.7,1464.87,1825.14,1452.75,1869.72,1440.57Z"/>
  </g>
  <g id="Слой_3" data-name="Слой 3">
    <path class="cls-6" d="M1575.07,668.62s-62.16,8.54-66.68,114c-20.08,1.51-71.81,4.52-92.9,14.57s-53.23,19.08-77.34,74.82-15.56,66.29-28.62,80.35-19.58,39.67-23.1,50.22.5,28.12-5,39.17-20.09,22.59-11.05,62.26,17.7,54.24,18.39,63.28,14.25,19.58,30.82,10,59-31,87.09-50c-1.1,61.16-2.72,204.21-12.8,242.34s-14.9,30.75-17.53,44.3-15.34,35,18,41.6,79.32-2.63,130.16,8.76,141.11,55.66,194.14,46.46,35.18-32.91,38.14-51.22,10.5-47.94,10.5-47.94c18.58,26.39,27.74,57.9,27.74,57.9s1.62,17.24,24.24,14.27,43.89-5.11,57.9-24.23,1.34-22.09,1.34-22.09c1.08-21,.54-23.69-8.34-35.27-.54-19.66.8-31-10.78-49.83s-19.39-61.67-16.42-94.52,9.42-135.19,10-165.35,4-139.95-22-188-55.84-75.84-61.57-80.79c3.9-7.81,11.72-29.69,0-47.92S1741.47,730,1709.5,696,1575.07,668.62,1575.07,668.62Z"/>
  </g>
  <g id="Слой_11" data-name="Слой 11">
    <path class="cls-4" d="M1508.39,782.61c14.3,7.92,79,45.69,97.36,120.09,11.55,46.71.23,89.11-4.64,106.57-5.56,20-13.94,39.63-28,63-30.07,50.08-110.2,135.85-169.94,186.65a264.48,264.48,0,0,1-.48-34c.06-1.31.14-2.62.22-3.92a946.35,946.35,0,0,0,86.27-87.71c45.58-52.86,73.3-83.69,83.93-131.61,17.11-77.13,8.48-63.11,8.48-63.11l-6-32.78q-.67-3.25-1.51-6.51c-13.3-51.81-54.53-88.74-97.53-114.12Z"/>
  </g>
  <g id="Слой_7" data-name="Слой 7">
    <path class="cls-5" d="M1512.85,967.76a99.07,99.07,0,0,0,26-36.91c9.7-23.77,34.31-25,34.31-25s22.62.62,32.63-3.13c7.82,0,10.32-.94,14.7,4.69a23.81,23.81,0,0,1-.94,10.08c6,1.87,10.83,7.46,7.09,17.73a14.8,14.8,0,0,1,7.07,6.93c3.31,7-.8,13.88-1.14,14.41,1.64,1.64,5.6,6.09,5.58,12.14a16.49,16.49,0,0,1-3.36,9.48c-10.91,15.54-48.3,26.89-48.3,26.89-24.27,6.16-35.85,7.47-54.15,16.24Q1522.58,994.53,1512.85,967.76Z"/>
  </g>
  <g id="Слой_4" data-name="Слой 4">
    <path class="cls-5" d="M1584.18,770.1s41.36,43.68,63.2,108.2c37.72-13.23,42.35-14.89,42.35-14.89,2.32-24.15,2.65-117.46,17.21-140.29S1584.18,770.1,1584.18,770.1Z"/>
  </g>
  <g id="Слой_5" data-name="Слой 5">
    <path class="cls-5" d="M1572.87,602.32c-16.17,45.53-17.11,82.86-15.8,105.54,1.06,18.44,5.46,60.74,26.07,72.9A43,43,0,0,0,1611,786s95.12,6.55,109.75-80.1a24.59,24.59,0,0,0,14.82-2.78,25.57,25.57,0,0,0,4-2.95c7.51-6.88,17.34-28.16,8.13-41.5-1-1.48-5.65-8.24-12.74-7.86-3.5.19-7.42,2.22-11.36,7.65,0-29.39,9.72-46.51,9.72-46.51Z"/>
  </g>
  <g id="Слой_8" data-name="Слой 8">
    <path class="cls-4" d="M1575.59,588c9.73-31,13.27-47.76,38.63-59.85s57.49-15.62,95.52,5.31,41.87,48.06,44.52,59,.3,32.43-7.37,57.2-41-5-41-5L1640.46,585Z"/>
    <path class="cls-4" d="M1552.57,622.62a91.27,91.27,0,0,1,24.31-7.11c53.31-7.76,96.27,35.25,104.5,43.81a23.87,23.87,0,0,0,4.14,2.7c8.62,4.41,17.78,2.19,39.4-4,13-3.75,19.45-5.64,20.11-6.52,5.62-7.56-2.41-30.06-64.93-96.87l-78.87,28.6L1575.59,588a44.48,44.48,0,0,1-7.7,17.79c-7.67,10.36-19.36,15.84-18.61,17.2C1549.61,623.54,1552.05,622.85,1552.57,622.62Z"/>
  </g>
  <g id="Слой_9" data-name="Слой 9">
    <path class="cls-5" d="M1726.34,657.56s11.7-15,21.35,1.14C1749.1,674.1,1726.34,657.56,1726.34,657.56Z"/>
  </g>
</svg>
